<?xml version="1.0" encoding="utf-8"?>
<!-- Generator: Adobe Illustrator 23.0.1, SVG Export Plug-In . SVG Version: 6.00 Build 0)  -->
<svg version="1.1" id="Layer_1" xmlns="http://www.w3.org/2000/svg" xmlns:xlink="http://www.w3.org/1999/xlink" x="0px" y="0px"
	 viewBox="0 0 560 560" style="enable-background:new 0 0 560 560;" xml:space="preserve">
<style type="text/css">
	.st0{fill:#EC9513;}
</style>
<path class="st0" d="M479.5,95.4h-400c-34.5,0-62.5,28-62.5,62.5v233.4c0,34.5,28,62.5,62.5,62.5h400c34.5,0,62.5-28,62.5-62.5
	V157.9C542,123.4,514,95.4,479.5,95.4z M79.5,120.4h400c18,0,33.5,12.8,36.9,30.5l-236.9,132l-236.9-132
	C46,133.2,61.5,120.5,79.5,120.4z M479.5,428.7h-400c-20.7-0.1-37.4-16.8-37.5-37.5v-212l231.4,129c1.9,1,4,1.6,6.1,1.6
	c2.2,0,4.3-0.5,6.1-1.6l231.4-129v212C517,411.9,500.2,428.6,479.5,428.7z"/>
</svg>
