<?xml version="1.0" encoding="utf-8"?>
<!-- Generator: Adobe Illustrator 16.0.3, SVG Export Plug-In . SVG Version: 6.00 Build 0)  -->
<!DOCTYPE svg PUBLIC "-//W3C//DTD SVG 1.1//EN" "http://www.w3.org/Graphics/SVG/1.1/DTD/svg11.dtd">
<svg version="1.1" id="Capa_1" xmlns="http://www.w3.org/2000/svg" xmlns:xlink="http://www.w3.org/1999/xlink" x="0px" y="0px"
	 width="100px" height="100px" viewBox="0 0 100 100" enable-background="new 0 0 100 100" xml:space="preserve">
<g>
	<path fill-rule="evenodd" clip-rule="evenodd" fill="#F9E5C9" d="M99.204,31.157c-0.059,0.008-0.116,0.011-0.175,0.009
		c-0.47-0.617-0.47-1.234,0-1.851c0.059-0.002,0.116,0,0.175,0.009C99.204,29.935,99.204,30.546,99.204,31.157z"/>
	<path fill-rule="evenodd" clip-rule="evenodd" fill="#EC9521" d="M53.981,41.73c0,10.015,0.03,20.029-0.02,30.043
		c-0.014,2.757-0.532,5.468-1.45,8.078c-2.14,6.094-6.572,9.461-12.813,10.552c-4.706,0.822-9.388,0.564-14.028-0.576
		c-0.686-0.169-0.933-0.448-0.823-1.182c0.442-2.95,0.848-5.905,1.225-8.864c0.085-0.665,0.434-0.443,0.773-0.349
		c2.072,0.58,4.184,0.871,6.332,0.805c4.475-0.138,6.957-2.282,7.771-6.676c0.285-1.538,0.404-3.092,0.404-4.655
		c0-15.345,0-30.689,0-46.034c0-1.49-0.247-1.806-1.718-2.162c-1.37-0.332-2.766-0.188-4.152-0.207
		c-5.393-0.072-10.787-0.25-16.177,0.054c-1.744,0.098-3.374,0.531-4.438,2.075c-1.487,2.158-1.072,4.985,0.991,6.663
		c1.894,1.54,4.119,2.469,6.378,3.314c3.176,1.187,6.322,2.409,9.228,4.215c9.401,5.844,8.951,17.064,4.438,23
		c-2.803,3.688-6.62,5.771-11.027,6.805c-8.033,1.882-15.881,1.153-23.532-1.908c-0.748-0.299-0.999-0.633-0.765-1.498
		c0.787-2.91,1.476-5.847,2.169-8.78c0.145-0.611,0.314-0.764,0.934-0.462c4.11,2.004,8.472,3.062,13.033,3.192
		c1.965,0.056,3.934-0.16,5.767-0.998c4.116-1.883,4.707-6.703,1.143-9.496c-2.141-1.678-4.677-2.578-7.197-3.487
		c-3.139-1.132-6.165-2.479-8.859-4.482c-4.734-3.519-7.135-8.149-6.296-14.093c0.789-5.587,4.176-9.293,9.194-11.569
		c3.47-1.574,7.211-2.066,10.961-2.466C29.818,9.69,38.237,10,46.647,10.078c2.102,0.019,4.207,0.072,6.308,0.045
		c0.831-0.011,1.083,0.188,1.078,1.055c-0.037,6.857-0.021,13.715-0.021,20.572c0,3.327,0,6.654,0,9.981
		C54.002,41.73,53.992,41.73,53.981,41.73z"/>
	<path fill-rule="evenodd" clip-rule="evenodd" fill="#EC9521" d="M99.029,29.315c0,0.617,0,1.234,0,1.851
		c-0.202,4.023-1.495,7.701-3.582,11.108c-4.148,6.773-8.865,13.167-13.229,19.796c-1.231,1.87-2.53,3.695-3.752,5.57
		c-0.393,0.603-0.566,0.558-0.946-0.008c-5.391-8.024-10.84-16.011-16.19-24.062c-2.772-4.173-4.376-8.746-4.348-13.852
		c0.046-8.203,5.75-16.035,14.02-18.833c11.468-3.88,23.938,2.368,27.252,13.725C98.702,26.147,98.956,27.716,99.029,29.315z"/>
	<path fill-rule="evenodd" clip-rule="evenodd" fill="#EC9725" d="M57.963,83.508c1.727,0.001,2.399,0.503,2.365,1.763
		c-0.026,0.972-0.591,1.644-1.657,1.663c-0.81,0.015-0.971,0.316-0.908,1.016c0.036,0.403,0.161,0.922-0.579,0.899
		c-0.44-0.014-0.695-0.088-0.687-0.608c0.022-1.349-0.013-2.699,0.017-4.049C56.529,83.505,56.57,83.506,57.963,83.508z"/>
	<path fill-rule="evenodd" clip-rule="evenodd" fill="#EC9623" d="M71.878,86.895c0.017-1.238,0.819-2.007,2.079-1.989
		c1.189,0.017,1.992,0.819,1.988,1.99c-0.004,1.165-0.902,2.068-2.067,2.08C72.676,88.987,71.86,88.14,71.878,86.895z"/>
	<path fill-rule="evenodd" clip-rule="evenodd" fill="#EC9623" d="M60.658,86.956c-0.009-1.282,0.725-2.035,1.996-2.051
		c1.207-0.015,2.005,0.738,2.035,1.922c0.032,1.232-0.875,2.167-2.082,2.146C61.443,88.953,60.665,88.147,60.658,86.956z"/>
	<path fill-rule="evenodd" clip-rule="evenodd" fill="#EC9723" d="M82.078,86.064c-0.352-0.47-0.784-0.331-1.197-0.18
		c-0.344,0.126-0.504,0-0.591-0.32c-0.084-0.312,0.114-0.403,0.347-0.51c1.479-0.677,2.821,0.113,2.777,1.724
		c-0.019,0.675,0.483,1.625-0.28,1.983c-0.536,0.251-1.334,0.114-2.017,0.172c-0.561,0.047-1.031-0.324-1.141-0.949
		c-0.12-0.684,0.161-1.161,0.779-1.485C81.173,86.281,81.704,86.429,82.078,86.064z"/>
	<path fill-rule="evenodd" clip-rule="evenodd" fill="#EC9724" d="M87.452,87.351c0.524,0.753,1.077,0.643,1.598,0.613
		c0.256-0.015,0.535-0.175,0.605,0.27c0.063,0.392-0.079,0.538-0.455,0.617c-0.949,0.199-1.858,0.189-2.521-0.615
		c-0.603-0.731-0.55-1.579-0.133-2.388c0.438-0.848,1.207-1.05,2.078-0.906c0.824,0.135,1.168,0.729,1.303,1.493
		c0.108,0.612-0.008,0.994-0.758,0.925C88.668,87.313,88.159,87.351,87.452,87.351z"/>
	<path fill-rule="evenodd" clip-rule="evenodd" fill="#EC9724" d="M92.166,84.903c0.118,0.01,0.32,0.022,0.521,0.045
		c0.334,0.038,0.459,0.22,0.406,0.557c-0.054,0.34-0.182,0.473-0.542,0.335c-0.283-0.108-0.682-0.199-0.78,0.174
		c-0.084,0.318,0.33,0.36,0.562,0.458c0.56,0.235,1.011,0.526,0.997,1.236c-0.011,0.552-0.295,0.876-0.769,1.074
		c-0.66,0.276-1.325,0.226-1.965-0.049c-0.226-0.097-0.155-0.354-0.097-0.543c0.059-0.188,0.125-0.398,0.413-0.304
		c0.159,0.053,0.325,0.103,0.49,0.11c0.22,0.01,0.521,0.12,0.619-0.163c0.104-0.302-0.18-0.383-0.401-0.467
		c-0.031-0.012-0.064-0.021-0.095-0.034c-0.617-0.274-1.192-0.622-1.003-1.418C90.71,85.132,91.345,84.908,92.166,84.903z"/>
	<path fill-rule="evenodd" clip-rule="evenodd" fill="#EC9724" d="M78.537,88.981c-0.805-0.098-1.54-0.252-1.909-1.027
		c-0.38-0.796-0.337-1.591,0.206-2.299c0.557-0.728,1.36-0.806,2.204-0.729c0.342,0.031,0.47,0.186,0.431,0.529
		c-0.037,0.32-0.14,0.504-0.507,0.453c-0.376-0.052-0.766-0.045-1.018,0.296c-0.225,0.304-0.35,0.641-0.203,1.041
		c0.159,0.438,0.478,0.632,0.906,0.704c0.327,0.056,0.869-0.301,0.833,0.449C79.446,89.12,78.832,88.8,78.537,88.981z"/>
	<path fill-rule="evenodd" clip-rule="evenodd" fill="#EC9725" d="M69.9,86.056c0-0.743,0.017-1.485-0.006-2.228
		c-0.015-0.466,0.219-0.56,0.622-0.563c0.408-0.002,0.62,0.102,0.614,0.563c-0.018,1.484-0.018,2.97,0,4.454
		c0.006,0.461-0.206,0.565-0.614,0.563c-0.403-0.003-0.637-0.097-0.622-0.563C69.917,87.541,69.9,86.798,69.9,86.056z"/>
	<path fill-rule="evenodd" clip-rule="evenodd" fill="#EC9521" d="M85.555,86.061c0,0.711-0.021,1.423,0.008,2.133
		c0.02,0.47-0.123,0.655-0.624,0.657c-0.515,0.001-0.618-0.215-0.612-0.669c0.021-1.422,0.022-2.844-0.001-4.266
		c-0.007-0.47,0.125-0.654,0.625-0.656c0.515-0.002,0.629,0.213,0.612,0.668C85.536,84.638,85.555,85.35,85.555,86.061z"/>
	<path fill-rule="evenodd" clip-rule="evenodd" fill="#EC9723" d="M66.012,88.827c-0.501,0.091-0.642-0.148-0.632-0.621
		c0.019-0.876-0.012-1.753-0.021-2.63c-0.001-0.102,0.006-0.202,0.016-0.303c0.024-0.269,0.303-0.398,0.417-0.29
		c0.642,0.614,1.399-0.412,1.967,0.162c0.142,0.144,0.184,0.757-0.109,0.807c-1.481,0.254-0.966,1.377-1.024,2.229
		C66.595,88.616,66.546,88.922,66.012,88.827z"/>
	<path fill-rule="evenodd" clip-rule="evenodd" fill="#FEFEFE" d="M66.981,29.634c0-6.104,4.876-10.982,10.978-10.984
		c6.166-0.001,11.079,4.874,11.09,11.004c0.011,6.096-4.972,11.089-11.056,11.077C71.881,40.718,66.98,35.781,66.981,29.634z"/>
	<path fill-rule="evenodd" clip-rule="evenodd" fill="#FDF7EF" d="M57.723,85.257c-0.016-0.453-0.028-0.856,0.537-0.806
		c0.478,0.042,0.874,0.218,0.836,0.796c-0.035,0.546-0.395,0.735-0.898,0.74C57.581,85.992,57.758,85.528,57.723,85.257z"/>
	<path fill-rule="evenodd" clip-rule="evenodd" fill="#FDFBF7" d="M74.603,86.886c-0.027,0.61-0.113,1.15-0.746,1.099
		c-0.646-0.053-0.726-0.641-0.71-1.162c0.015-0.492,0.159-1.043,0.765-1C74.572,85.87,74.584,86.471,74.603,86.886z"/>
	<path fill-rule="evenodd" clip-rule="evenodd" fill="#FEFBF8" d="M63.385,86.917c-0.043,0.467-0.047,1.074-0.743,1.068
		c-0.605-0.006-0.708-0.536-0.715-1.042c-0.008-0.541,0.081-1.117,0.737-1.121C63.256,85.818,63.361,86.364,63.385,86.917z"/>
	<path fill-rule="evenodd" clip-rule="evenodd" fill="#FBEDDA" d="M81.605,88.018c-0.272-0.015-0.457-0.16-0.428-0.441
		c0.041-0.372,0.364-0.471,0.664-0.516c0.28-0.042,0.472,0.109,0.395,0.418C82.159,87.791,81.998,88.049,81.605,88.018z"/>
	<path fill-rule="evenodd" clip-rule="evenodd" fill="#FDF8F2" d="M88.19,86.498c-0.224-0.066-0.615,0.12-0.599-0.312
		c0.012-0.307,0.29-0.429,0.587-0.428c0.317,0.003,0.538,0.202,0.548,0.484C88.739,86.621,88.387,86.433,88.19,86.498z"/>
</g>
</svg>
